PathFileType	4	(X/Y/Z)	C:\Users\WrightLab\Desktop\Jo\P4V115.trc
DataRate	CameraRate	NumFrames	NumMarkers	Units	OrigDataRate	OrigDataStartFrame	OrigNumFrames
100.00	100.00	       63	19	mm	100.00	1	       637
Frame#	Time	Headset_Front			Headset_Back			Headset_Left			Headset_Right			Left_Shoulder			Right_Shoulder			Sternum			C7			Left Elbow			Right Elbow			Left Wrist			Right Wrist			Left ASIS			Right ASIS			S2			Left Knee			Right Knee			Left Ankle			Right Ankle			
		X1	Y1	Z1	X2	Y2	Z2	X3	Y3	Z3	X4	Y4	Z4	X5	Y5	Z5	X6	Y6	Z6	X7	Y7	Z7	X8	Y8	Z8	X9	Y9	Z9	X10	Y10	Z10	X11	Y11	Z11	X12	Y12	Z12	X13	Y13	Z13	X14	Y14	Z14	X15	Y15	Z15	X16	Y16	Z16	X17	Y17	Z17	X18	Y18	Z18	X19	Y19	Z19	

1	0.000																									207.55363	1144.26416	-1657.21838				175.87320	871.30011	-1505.35083													61.70759	506.50623	-1585.59338										
2	0.010																									207.93701	1143.43091	-1654.46252				174.97163	868.25073	-1511.08289													61.76368	506.75565	-1585.07629										
3	0.020																									207.79659	1142.78662	-1652.23389				173.74484	872.31091	-1499.57239													61.83332	506.98611	-1584.42468										
4	0.030																									207.02686	1143.27454	-1652.45154				172.53250	870.43298	-1504.90747													61.90612	507.24023	-1583.74512										
5	0.040																									206.95026	1143.40991	-1651.74390				170.94267	873.98328	-1494.02759													61.96249	507.43982	-1583.21936										
6	0.050																									206.84744	1143.54895	-1650.99487				169.85301	874.63580	-1490.90527													62.02473	507.63657	-1582.63599										
7	0.060																									206.77055	1143.68835	-1650.26819				168.95149	872.90442	-1496.02563													62.12610	507.87341	-1581.67590										
8	0.070																									206.69733	1143.79150	-1649.71594				167.19955	876.80994	-1485.81970													62.84810	507.91669	-1582.93591										
9	0.080																									206.58102	1142.60901	-1646.62378				165.56049	876.53943	-1487.21838													63.63526	507.47614	-1583.48254										
10	0.090																									206.48291	1142.71912	-1646.01672				164.47549	878.70135	-1479.89929													64.17537	506.98257	-1583.23352										
11	0.100																									206.43532	1142.82056	-1645.49634				162.97044	880.25262	-1477.91565													64.25997	507.21954	-1582.43433										
12	0.110																									206.37578	1142.89648	-1645.08521				161.33641	881.66943	-1475.84204													65.55361	506.00787	-1584.39197										
13	0.120																									206.58769	1142.04480	-1642.78552				159.95421	882.74554	-1473.29895													65.69701	506.40585	-1583.03430										
14	0.130																									206.55902	1142.12427	-1642.38574				158.47931	884.24017	-1471.54492													65.81206	506.67850	-1581.93994										
15	0.140																									206.53151	1142.19043	-1642.04944				157.16153	885.47253	-1469.38293													65.90620	506.97876	-1581.05298										
16	0.150																									206.49219	1142.24683	-1641.74890				155.24580	886.40106	-1466.86877													66.88757	506.75009	-1582.00415										
17	0.160																									206.45390	1142.28906	-1641.51587				153.98985	887.93610	-1465.42712													67.62163	506.17984	-1583.05872										
18	0.170																									206.43355	1142.33130	-1641.29907				153.03426	889.14648	-1463.46252													68.32411	506.22272	-1584.52209										
19	0.180																									206.43085	1142.35779	-1641.17188				152.16251	889.67230	-1460.66321													68.39584	506.42654	-1583.84070										
20	0.190																									207.01424	1141.70203	-1639.61511				150.75302	890.93414	-1459.13257													68.43781	506.50842	-1583.43774										
21	0.200																									207.04807	1141.73730	-1639.47925				149.42435	892.15265	-1457.71619													68.51064	506.72659	-1582.74719										
22	0.210																									207.58464	1140.92737	-1637.60986				148.89761	892.88336	-1455.64966													68.57767	506.94095	-1582.11304										
23	0.220																									207.64383	1140.98010	-1637.41455				148.39027	893.53992	-1453.93420													68.64334	507.08273	-1581.48401										
24	0.230																									207.72366	1141.02002	-1637.29846				147.54424	894.24786	-1452.34656													68.65844	507.13898	-1581.34204										
25	0.240																									207.78625	1141.06140	-1637.16003				146.68123	895.44904	-1451.96594				86.13333	999.94159	-1556.09070							68.68977	507.17029	-1581.03772										
26	0.250																									207.88797	1141.11328	-1637.00647				146.30630	896.07178	-1450.90601				86.21325	1000.13788	-1555.31750							68.71468	507.23059	-1580.79980										
27	0.260																									207.68251	1140.75525	-1636.22437				144.66910	896.49255	-1452.41028				86.46004	999.75800	-1554.50793							68.75962	507.29166	-1580.36487										
28	0.270																									207.79721	1140.78918	-1636.16724				144.95953	897.53033	-1450.19128				86.55677	999.98230	-1553.57153							68.77538	507.37564	-1580.21985										
29	0.280																									208.16994	1141.20068	-1636.84790				144.72827	897.77637	-1449.51245				86.65668	1000.22455	-1552.60461							68.77687	507.32013	-1580.19849										
30	0.290																									208.28104	1141.23730	-1636.77539				144.53723	897.94312	-1449.02051				86.75623	1000.47504	-1551.64148							68.80016	507.36273	-1579.97437										
31	0.300																									208.40613	1141.26379	-1636.76282				144.13234	897.85114	-1448.35486				86.80099	1000.55719	-1551.20752							68.84628	507.52881	-1579.54053										
32	0.310																									208.52237	1141.27429	-1636.81812				144.07649	897.81281	-1448.27161				86.90529	1000.83490	-1550.19873							68.85173	507.55099	-1579.48938										
33	0.320																									208.65521	1141.28357	-1636.89404				144.06493	897.71655	-1448.39673				86.96658	1000.96283	-1549.60510							69.99205	505.60486	-1582.63013										
34	0.330																									208.79086	1141.29443	-1636.96472				144.11143	897.52692	-1448.68188				87.02859	1001.09241	-1549.00439							70.00047	505.63483	-1582.55066										
35	0.340																									209.52271	1141.11609	-1636.45313				144.29305	896.81628	-1448.37952				87.79049	1000.83649	-1550.38232							70.01688	505.65033	-1582.39087										
36	0.350																									209.67683	1141.13281	-1636.51294				144.74010	896.51886	-1449.19263				87.86961	1000.99609	-1549.61462							70.28247	504.76489	-1582.75037										
37	0.360																									209.85146	1141.14929	-1636.59302				144.97281	896.10455	-1449.79346				89.31026	1000.28900	-1553.18433							70.30226	504.83945	-1582.56396										
38	0.370																									210.01961	1141.16589	-1636.66663				145.48343	893.89288	-1455.09827				89.39971	1000.44360	-1552.31311							70.32018	504.89380	-1582.39368										
39	0.380																									210.75612	1140.97913	-1636.19678				146.41519	894.54639	-1450.90955				89.48817	1000.61322	-1551.45215							70.35126	504.92874	-1582.09204										
40	0.390																									210.93719	1140.98450	-1636.33472				147.09592	893.87262	-1451.90295				89.55418	1000.71039	-1550.80872							70.36826	504.93930	-1581.92603										
41	0.400																									211.13448	1140.98511	-1636.51013				147.78062	892.97113	-1452.88220				89.98031	999.96777	-1551.04590							70.40395	505.01248	-1581.58313										
42	0.410																									211.33974	1140.97363	-1636.74988				148.23915	892.40137	-1454.41821				90.38203	999.20319	-1551.52112							70.45718	505.13297	-1581.07288										
43	0.420																									212.64561	1139.44751	-1633.77991				149.01364	891.39862	-1455.45007				90.45804	999.38660	-1550.78149							70.43655	505.01886	-1581.26318										
44	0.430																									212.85155	1139.42981	-1634.04980				150.03342	890.15289	-1456.31543				90.51984	999.50128	-1550.17932							70.51764	505.22922	-1580.48865										
45	0.440																									213.08530	1139.42993	-1634.26135				151.71307	889.79590	-1459.03223				90.59896	999.66803	-1549.40906							70.53203	505.18887	-1580.34253										
46	0.450																									213.34523	1139.42920	-1634.50146				152.50114	889.09479	-1460.73083				90.67439	999.82721	-1548.67456							70.55449	505.21173	-1580.12390										
47	0.460																									213.59769	1139.41345	-1634.80542				153.66414	887.63074	-1461.41797				90.72907	999.94574	-1548.14233							70.60498	505.31702	-1579.63855										
48	0.470																									213.99431	1139.96252	-1636.26599				155.05247	886.33258	-1462.64893				90.78086	1000.02252	-1547.63721							71.52711	504.38980	-1582.25952										
49	0.480																									214.52715	1140.32690	-1637.29919				156.72714	884.81909	-1463.62805				90.83385	1000.10114	-1547.12036							71.58607	504.57440	-1581.69897										
50	0.490																									214.79111	1140.28564	-1637.73438				157.94873	883.58917	-1465.06763				90.85057	1000.12592	-1546.95728							71.58536	504.51566	-1581.69910										
51	0.500																									215.06474	1140.24634	-1638.17029				159.33148	882.18481	-1466.36890				90.91597	1000.23718	-1546.31958							71.63361	504.59598	-1581.23193										
52	0.510																									215.91208	1140.01147	-1638.02039				160.12358	881.26007	-1468.59949				90.96055	1000.30768	-1545.88489							71.71961	504.85019	-1580.41248										
53	0.520																									216.18538	1139.96704	-1638.48059				162.15628	880.20422	-1470.82813				91.33730	999.38837	-1546.19507							71.74909	504.90753	-1580.12805										
54	0.530																									216.47932	1139.91003	-1639.01941				163.49036	878.73608	-1472.32593				91.41886	999.57245	-1545.40063							71.79037	504.99130	-1579.73010										
55	0.540																									217.37518	1139.67346	-1638.91968				164.26994	877.96503	-1474.68018				91.86929	999.87695	-1546.55969							71.86276	505.17297	-1579.03650										
56	0.550																									217.64243	1139.62366	-1639.40137				165.54013	877.09766	-1476.91492				91.50043	999.73029	-1544.60583							71.88939	505.20218	-1578.77673										
57	0.560																									217.94005	1139.56201	-1639.96765				167.74379	875.70142	-1478.40002				91.54303	999.80627	-1544.19043							71.92117	505.33615	-1578.47864										
58	0.570																									218.34245	1140.10535	-1641.69421				168.68599	874.92047	-1480.40454				91.58414	999.88947	-1543.78979							71.96275	505.43048	-1578.07898										
59	0.580																									219.50436	1139.73743	-1641.31824				170.16222	874.08258	-1482.26343				92.42659	999.66174	-1545.51941							72.93187	504.62817	-1579.94055										
60	0.590																									219.81116	1139.67078	-1641.91760				171.59097	872.73621	-1483.07605				91.66412	1000.05121	-1543.01050							72.93977	504.61658	-1579.86096										
61	0.600																									220.13983	1139.61804	-1642.47205				173.63828	872.34613	-1485.60559				92.48708	999.78778	-1544.92920							72.96838	504.67300	-1579.58447										
62	0.610																									220.40974	1139.55591	-1643.01721				174.71207	870.72931	-1490.76355				92.56217	999.13007	-1544.64636							73.02710	504.82101	-1579.02075										
63	0.620																									221.32071	1139.42749	-1643.24121				175.73024	871.07727	-1489.41333				92.60523	999.21857	-1544.22620							73.04755	504.20474	-1578.36414										
